<?xml version="1.0" encoding="UTF-8" standalone="no"?>
<svg
   xmlns:dc="http://purl.org/dc/elements/1.1/"
   xmlns:cc="http://creativecommons.org/ns#"
   xmlns:rdf="http://www.w3.org/1999/02/22-rdf-syntax-ns#"
   xmlns:svg="http://www.w3.org/2000/svg"
   xmlns="http://www.w3.org/2000/svg"
   xmlns:sodipodi="http://sodipodi.sourceforge.net/DTD/sodipodi-0.dtd"
   xmlns:inkscape="http://www.inkscape.org/namespaces/inkscape"
   version="1.1"
   width="64"
   height="64"
   viewBox="0 0 64 64"
   id="svg4"
   sodipodi:docname="enter.svg"
   inkscape:version="0.92.2 2405546, 2018-03-11">
  <metadata
     id="metadata10">
    <rdf:RDF>
      <cc:Work
         rdf:about="">
        <dc:format>image/svg+xml</dc:format>
        <dc:type
           rdf:resource="http://purl.org/dc/dcmitype/StillImage" />
        <dc:title></dc:title>
      </cc:Work>
    </rdf:RDF>
  </metadata>
  <defs
     id="defs8" />
  <sodipodi:namedview
     pagecolor="#ffffff"
     bordercolor="#666666"
     borderopacity="1"
     objecttolerance="10"
     gridtolerance="10"
     guidetolerance="10"
     inkscape:pageopacity="0"
     inkscape:pageshadow="2"
     inkscape:window-width="1600"
     inkscape:window-height="832"
     id="namedview6"
     showgrid="false"
     inkscape:zoom="3.4766083"
     inkscape:cx="-30.87432"
     inkscape:cy="51.976785"
     inkscape:window-x="0"
     inkscape:window-y="28"
     inkscape:window-maximized="0"
     inkscape:current-layer="svg4"
     inkscape:pagecheckerboard="true" />
  <path
     d="M 45.984,21.6 H 17.92 C 16.88,21.6 16,22.512 16,23.632 v 16.736 c 0,1.12 0.88,2.032 1.968,2.032 H 25.6 c 0.864,0 1.6,-0.512 1.856,-1.264 L 29.68,35.584 C 30.064,34.656 30.96,34 32,34 c 1.04,0 1.936,0.656 2.32,1.584 l 2.224,5.552 c 0.304,0.752 0.992,1.264 1.776,1.264 h 7.664 C 47.12,42.4 48,41.488 48,40.368 V 23.632 C 48,22.512 47.12,21.6 45.984,21.6 M 24.352,35.328 C 22.4,35.328 20.8,33.68 20.8,31.664 20.8,29.6 22.4,28 24.352,28 c 1.952,0 3.536,1.6 3.536,3.664 0,2.016 -1.584,3.664 -3.536,3.664 m 15.296,0 c -1.952,0 -3.536,-1.648 -3.536,-3.664 0,-2.016 1.584,-3.664 3.536,-3.664 1.952,0 3.552,1.648 3.552,3.664 0,2.016 -1.6,3.664 -3.552,3.664 z"
     id="path2"
     inkscape:connector-curvature="0"
     style="stroke-width:1.60000002;fill:#ffffff" />
</svg>
